<svg xmlns="http://www.w3.org/2000/svg" width="64" height="64" viewBox="0 0 64 64" fill="none">
  <defs>
    <linearGradient id="g" x1="0" y1="0" x2="1" y2="1">
      <stop offset="0%" stop-color="#0a7cff"/>
      <stop offset="100%" stop-color="#6ad1ff"/>
    </linearGradient>
  </defs>
  <rect x="8" y="8" width="48" height="48" rx="12" fill="url(#g)"/>
  <path d="M24 26c0-3.3 2.7-6 6-6 1.2 0 2.3.3 3.2.9 1.1-1.1 2.7-1.9 4.4-1.9 3.3 0 6 2.7 6 6 0 1.6-.6 3-1.7 4.1.5.9.7 1.9.7 2.9 0 3.3-2.7 6-6 6H30c-3.3 0-6-2.7-6-6 0-1.6.6-3 1.7-4.1-.5-.9-.7-1.9-.7-2.9Z" fill="#fff" opacity="0.95"/>
  <circle cx="30" cy="28" r="1.8" fill="#0a7cff"/>
  <circle cx="38" cy="26" r="1.8" fill="#0a7cff"/>
  <path d="M28 36h12" stroke="#0a7cff" stroke-width="2.5" stroke-linecap="round"/>
</svg>
